<svg width="13" height="13" viewBox="0 0 13 13" fill="none" xmlns="http://www.w3.org/2000/svg">
<path d="M1.3125 0.125H5.38672C5.85156 0.125 6.28906 0.316406 6.61719 0.644531L11.4297 5.45703C12.1133 6.14062 12.1133 7.26172 11.4297 7.94531L7.79297 11.582C7.10938 12.2656 5.98828 12.2656 5.30469 11.582L0.492188 6.76953C0.164062 6.44141 0 6.00391 0 5.53906V1.4375C0 0.726562 0.574219 0.125 1.3125 0.125ZM3.0625 4.0625C3.52734 4.0625 3.9375 3.67969 3.9375 3.1875C3.9375 2.72266 3.52734 2.3125 3.0625 2.3125C2.57031 2.3125 2.1875 2.72266 2.1875 3.1875C2.1875 3.67969 2.57031 4.0625 3.0625 4.0625Z" fill="black"/>
</svg>
